<svg width="150" height="30" viewBox="0 0 150 30" fill="none" xmlns="http://www.w3.org/2000/svg">
<circle cx="15" cy="15" r="15" fill="white"/>
<path fill-rule="evenodd" clip-rule="evenodd" d="M27.25 15.0738C27.25 8.30901 21.7648 2.82385 15 2.82385C8.23516 2.82385 2.75 8.30901 2.75 15.0738C2.75 21.1879 7.22891 26.2558 13.0859 27.1756V18.616H9.97477V15.0738H13.0859V12.375C13.0859 9.30541 14.9152 7.60846 17.713 7.60846C19.0534 7.60846 20.4556 7.84799 20.4556 7.84799V10.8629H18.9102C17.3893 10.8629 16.9135 11.8068 16.9135 12.777V15.0738H20.3107L19.7682 18.616H16.9141V27.1767C22.7711 26.2574 27.25 21.1896 27.25 15.0738Z" fill="#21272A"/>
<circle cx="55" cy="15" r="15" fill="white"/>
<path d="M62.3504 6.25H47.7453C46.9473 6.25 46.25 6.82422 46.25 7.61289V22.2504C46.25 23.0434 46.9473 23.75 47.7453 23.75H62.3461C63.1484 23.75 63.75 23.0387 63.75 22.2504V7.61289C63.7547 6.82422 63.1484 6.25 62.3504 6.25ZM51.6746 20.8371H49.1676V13.0422H51.6746V20.8371ZM50.5078 11.857H50.4898C49.6875 11.857 49.168 11.2598 49.168 10.5121C49.168 9.75078 49.7012 9.16758 50.5215 9.16758C51.3418 9.16758 51.8437 9.74648 51.8617 10.5121C51.8613 11.2598 51.3418 11.857 50.5078 11.857ZM60.8371 20.8371H58.3301V16.575C58.3301 15.5539 57.9652 14.8563 57.0582 14.8563C56.3652 14.8563 55.9551 15.325 55.7727 15.7816C55.7043 15.9457 55.6859 16.1691 55.6859 16.3973V20.8371H53.1789V13.0422H55.6859V14.127C56.0508 13.6074 56.6207 12.8598 57.9469 12.8598C59.5926 12.8598 60.8375 13.9445 60.8375 16.2832L60.8371 20.8371Z" fill="#21272A"/>
<circle cx="95" cy="15" r="15" fill="white"/>
<path d="M98.6457 7.7082C99.6118 7.71109 100.538 8.09616 101.221 8.77931C101.904 9.46246 102.289 10.3882 102.292 11.3543V18.6457C102.289 19.6118 101.904 20.5375 101.221 21.2207C100.538 21.9038 99.6118 22.2889 98.6457 22.2918H91.3543C90.3882 22.2889 89.4625 21.9038 88.7793 21.2207C88.0962 20.5375 87.7111 19.6118 87.7082 18.6457V11.3543C87.7111 10.3882 88.0962 9.46246 88.7793 8.77931C89.4625 8.09616 90.3882 7.71109 91.3543 7.7082H98.6457ZM98.6457 6.25H91.3543C88.5469 6.25 86.25 8.54687 86.25 11.3543V18.6457C86.25 21.4531 88.5469 23.75 91.3543 23.75H98.6457C101.453 23.75 103.75 21.4531 103.75 18.6457V11.3543C103.75 8.54687 101.453 6.25 98.6457 6.25Z" fill="#21272A"/>
<path d="M99.7395 11.3542C99.5232 11.3542 99.3117 11.2901 99.1318 11.1699C98.952 11.0497 98.8118 10.8789 98.729 10.6791C98.6462 10.4792 98.6246 10.2593 98.6668 10.0471C98.709 9.83495 98.8131 9.64006 98.9661 9.4871C99.1191 9.33414 99.314 9.22997 99.5261 9.18776C99.7383 9.14556 99.9582 9.16722 100.158 9.25001C100.358 9.33279 100.529 9.47298 100.649 9.65284C100.769 9.83271 100.833 10.0442 100.833 10.2605C100.834 10.4042 100.805 10.5466 100.751 10.6794C100.696 10.8123 100.615 10.933 100.514 11.0346C100.412 11.1362 100.291 11.2168 100.158 11.2716C100.026 11.3265 99.8832 11.3546 99.7395 11.3542Z" fill="#21272A"/>
<path d="M95 12.0832C95.5769 12.0832 96.1408 12.2543 96.6205 12.5748C97.1002 12.8953 97.474 13.3508 97.6948 13.8838C97.9155 14.4168 97.9733 15.0032 97.8608 15.569C97.7482 16.1348 97.4704 16.6546 97.0625 17.0625C96.6546 17.4704 96.1348 17.7482 95.569 17.8608C95.0032 17.9733 94.4168 17.9155 93.8838 17.6948C93.3508 17.474 92.8953 17.1002 92.5748 16.6205C92.2543 16.1408 92.0832 15.5769 92.0832 15C92.084 14.2267 92.3916 13.4853 92.9384 12.9384C93.4853 12.3916 94.2267 12.084 95 12.0832ZM95 10.625C94.1347 10.625 93.2888 10.8816 92.5694 11.3623C91.8499 11.8431 91.2892 12.5263 90.958 13.3258C90.6269 14.1252 90.5403 15.0049 90.7091 15.8535C90.8779 16.7022 91.2946 17.4817 91.9064 18.0936C92.5183 18.7054 93.2978 19.1221 94.1465 19.2909C94.9951 19.4597 95.8748 19.3731 96.6742 19.042C97.4737 18.7108 98.157 18.1501 98.6377 17.4306C99.1184 16.7112 99.375 15.8653 99.375 15C99.375 13.8397 98.9141 12.7269 98.0936 11.9064C97.2731 11.0859 96.1603 10.625 95 10.625Z" fill="#21272A"/>
<circle cx="135" cy="15" r="15" fill="white"/>
<path d="M144.375 8.77735C143.672 9.08296 142.927 9.2843 142.166 9.37501C142.966 8.9064 143.568 8.16195 143.859 7.28126C143.102 7.72368 142.276 8.0341 141.415 8.19923C141.052 7.81935 140.616 7.51716 140.134 7.311C139.651 7.10484 139.131 6.99904 138.606 7.00001C136.48 7.00001 134.76 8.69532 134.76 10.7852C134.758 11.0759 134.792 11.3657 134.859 11.6484C133.335 11.577 131.842 11.1881 130.477 10.5067C129.111 9.82537 127.903 8.86648 126.929 7.69141C126.588 8.26724 126.407 8.92424 126.406 9.59376C126.406 10.9063 127.091 12.0664 128.125 12.7461C127.512 12.7316 126.912 12.5694 126.376 12.2734V12.3203C126.376 14.1563 127.704 15.6836 129.462 16.0313C129.131 16.1194 128.791 16.164 128.448 16.1641C128.206 16.1645 127.964 16.1409 127.725 16.0938C128.214 17.5977 129.636 18.6914 131.321 18.7227C129.952 19.7777 128.271 20.348 126.543 20.3438C126.236 20.3433 125.93 20.325 125.625 20.2891C127.383 21.4118 129.427 22.0057 131.513 22C138.598 22 142.468 16.2305 142.468 11.2266C142.468 11.0625 142.464 10.8984 142.456 10.7383C143.207 10.2039 143.857 9.53989 144.375 8.77735Z" fill="#21272A"/>
</svg>
