<svg width="18" height="18" viewBox="0 0 18 18" fill="none" xmlns="http://www.w3.org/2000/svg">
<g clip-path="url(#clip0_56_200)">
<path d="M15.75 1.125C16.0484 1.125 16.3345 1.24353 16.5455 1.4545C16.7565 1.66548 16.875 1.95163 16.875 2.25V11.25C16.875 11.5484 16.7565 11.8345 16.5455 12.0455C16.3345 12.2565 16.0484 12.375 15.75 12.375H4.96575C4.36906 12.3751 3.79686 12.6123 3.375 13.0343L1.125 15.2843V2.25C1.125 1.95163 1.24353 1.66548 1.4545 1.4545C1.66548 1.24353 1.95163 1.125 2.25 1.125H15.75ZM2.25 0C1.65326 0 1.08097 0.237053 0.65901 0.65901C0.237053 1.08097 0 1.65326 0 2.25L0 16.6421C2.36417e-05 16.7534 0.0330667 16.8622 0.0949469 16.9547C0.156827 17.0473 0.244763 17.1193 0.347624 17.1618C0.450486 17.2044 0.563649 17.2154 0.672791 17.1936C0.781932 17.1718 0.882147 17.1181 0.96075 17.0392L4.17037 13.8296C4.3813 13.6186 4.66741 13.5001 4.96575 13.5H15.75C16.3467 13.5 16.919 13.2629 17.341 12.841C17.7629 12.419 18 11.8467 18 11.25V2.25C18 1.65326 17.7629 1.08097 17.341 0.65901C16.919 0.237053 16.3467 0 15.75 0L2.25 0Z" fill="#F9FAFB"/>
<path d="M3.375 3.9375C3.375 3.78832 3.43426 3.64524 3.53975 3.53975C3.64524 3.43426 3.78832 3.375 3.9375 3.375H14.0625C14.2117 3.375 14.3548 3.43426 14.4602 3.53975C14.5657 3.64524 14.625 3.78832 14.625 3.9375C14.625 4.08668 14.5657 4.22976 14.4602 4.33525C14.3548 4.44074 14.2117 4.5 14.0625 4.5H3.9375C3.78832 4.5 3.64524 4.44074 3.53975 4.33525C3.43426 4.22976 3.375 4.08668 3.375 3.9375ZM3.375 6.75C3.375 6.60082 3.43426 6.45774 3.53975 6.35225C3.64524 6.24676 3.78832 6.1875 3.9375 6.1875H14.0625C14.2117 6.1875 14.3548 6.24676 14.4602 6.35225C14.5657 6.45774 14.625 6.60082 14.625 6.75C14.625 6.89918 14.5657 7.04226 14.4602 7.14775C14.3548 7.25324 14.2117 7.3125 14.0625 7.3125H3.9375C3.78832 7.3125 3.64524 7.25324 3.53975 7.14775C3.43426 7.04226 3.375 6.89918 3.375 6.75ZM3.375 9.5625C3.375 9.41332 3.43426 9.27024 3.53975 9.16475C3.64524 9.05926 3.78832 9 3.9375 9H9.5625C9.71168 9 9.85476 9.05926 9.96025 9.16475C10.0657 9.27024 10.125 9.41332 10.125 9.5625C10.125 9.71168 10.0657 9.85476 9.96025 9.96025C9.85476 10.0657 9.71168 10.125 9.5625 10.125H3.9375C3.78832 10.125 3.64524 10.0657 3.53975 9.96025C3.43426 9.85476 3.375 9.71168 3.375 9.5625Z" fill="#F9FAFB"/>
</g>
<defs>
<clipPath id="clip0_56_200">
<rect width="18" height="18" fill="white"/>
</clipPath>
</defs>
</svg>
