<svg width="24" height="24" viewBox="0 0 24 24" fill="none" xmlns="http://www.w3.org/2000/svg">
<g opacity="0.8">
<path d="M15.75 14.25C19.0637 14.25 21.75 11.5637 21.75 8.25C21.75 4.93629 19.0637 2.25 15.75 2.25C12.4363 2.25 9.75 4.93629 9.75 8.25C9.75 11.5637 12.4363 14.25 15.75 14.25Z" stroke="white" stroke-width="1.47273" stroke-linecap="round" stroke-linejoin="round"/>
<path d="M19.9969 12.4969L11.5032 4.00314" stroke="white" stroke-width="1.47273" stroke-linecap="round" stroke-linejoin="round"/>
<path d="M9.375 14.625L8.25 15.75" stroke="white" stroke-width="1.47273" stroke-linecap="round" stroke-linejoin="round"/>
<path d="M9.82506 9.17813L2.63443 18.9844C2.52634 19.1283 2.47434 19.3066 2.48814 19.486C2.50195 19.6654 2.58061 19.8337 2.70943 19.9594L4.04068 21.2906C4.16634 21.4195 4.33461 21.4981 4.51405 21.5119C4.69348 21.5257 4.8718 21.4737 5.01568 21.3656L14.8219 14.175" stroke="white" stroke-width="1.47273" stroke-linecap="round" stroke-linejoin="round"/>
</g>
</svg>
