<svg width="24" height="24" viewBox="0 0 24 24" fill="none" xmlns="http://www.w3.org/2000/svg">
<path d="M10.875 15C11.9105 15 12.75 14.1605 12.75 13.125C12.75 12.0895 11.9105 11.25 10.875 11.25C9.83947 11.25 9 12.0895 9 13.125C9 14.1605 9.83947 15 10.875 15Z" stroke="#F9FAFB" stroke-width="1.47273" stroke-linecap="round" stroke-linejoin="round"/>
<path d="M3 21L9.55313 14.4469" stroke="#F9FAFB" stroke-width="1.47273" stroke-linecap="round" stroke-linejoin="round"/>
<path d="M3 21L16.0781 18.825C16.2072 18.803 16.3281 18.7471 16.4286 18.6631C16.5291 18.5791 16.6055 18.47 16.65 18.3469L18.75 12.75L11.25 5.25L5.65313 7.35C5.52979 7.39698 5.42083 7.4753 5.33699 7.57722C5.25314 7.67915 5.19731 7.80117 5.175 7.93125L3 21Z" stroke="#F9FAFB" stroke-width="1.47273" stroke-linecap="round" stroke-linejoin="round"/>
<path d="M18.75 12.75L21.2156 10.2844C21.2865 10.2146 21.3428 10.1314 21.3812 10.0397C21.4196 9.94793 21.4394 9.84947 21.4394 9.75001C21.4394 9.65055 21.4196 9.55209 21.3812 9.46035C21.3428 9.36861 21.2865 9.28542 21.2156 9.21563L14.7844 2.78438C14.7146 2.71352 14.6314 2.65724 14.5397 2.61883C14.4479 2.58042 14.3495 2.56064 14.25 2.56064C14.1505 2.56064 14.0521 2.58042 13.9603 2.61883C13.8686 2.65724 13.7854 2.71352 13.7156 2.78438L11.25 5.25001" stroke="#F9FAFB" stroke-width="1.47273" stroke-linecap="round" stroke-linejoin="round"/>
</svg>
