<svg width="30" height="30" viewBox="0 0 30 30" fill="none" xmlns="http://www.w3.org/2000/svg">
<circle cx="15" cy="15" r="15" fill="white"/>
<path d="M22.3504 6.25H7.74531C6.94727 6.25 6.25 6.82422 6.25 7.61289V22.2504C6.25 23.0434 6.94727 23.75 7.74531 23.75H22.3461C23.1484 23.75 23.75 23.0387 23.75 22.2504V7.61289C23.7547 6.82422 23.1484 6.25 22.3504 6.25ZM11.6746 20.8371H9.16758V13.0422H11.6746V20.8371ZM10.5078 11.857H10.4898C9.6875 11.857 9.16797 11.2598 9.16797 10.5121C9.16797 9.75078 9.70117 9.16758 10.5215 9.16758C11.3418 9.16758 11.8437 9.74648 11.8617 10.5121C11.8613 11.2598 11.3418 11.857 10.5078 11.857ZM20.8371 20.8371H18.3301V16.575C18.3301 15.5539 17.9652 14.8563 17.0582 14.8563C16.3652 14.8563 15.9551 15.325 15.7727 15.7816C15.7043 15.9457 15.6859 16.1691 15.6859 16.3973V20.8371H13.1789V13.0422H15.6859V14.127C16.0508 13.6074 16.6207 12.8598 17.9469 12.8598C19.5926 12.8598 20.8375 13.9445 20.8375 16.2832L20.8371 20.8371Z" fill="#21272A"/>
</svg>
