<svg width="30" height="30" viewBox="0 0 30 30" fill="none" xmlns="http://www.w3.org/2000/svg">
<circle cx="15" cy="15" r="15" fill="white"/>
<path d="M18.6457 7.7082C19.6118 7.71109 20.5375 8.09616 21.2207 8.77931C21.9038 9.46246 22.2889 10.3882 22.2918 11.3543V18.6457C22.2889 19.6118 21.9038 20.5375 21.2207 21.2207C20.5375 21.9038 19.6118 22.2889 18.6457 22.2918H11.3543C10.3882 22.2889 9.46246 21.9038 8.77931 21.2207C8.09616 20.5375 7.71109 19.6118 7.7082 18.6457V11.3543C7.71109 10.3882 8.09616 9.46246 8.77931 8.77931C9.46246 8.09616 10.3882 7.71109 11.3543 7.7082H18.6457ZM18.6457 6.25H11.3543C8.54687 6.25 6.25 8.54687 6.25 11.3543V18.6457C6.25 21.4531 8.54687 23.75 11.3543 23.75H18.6457C21.4531 23.75 23.75 21.4531 23.75 18.6457V11.3543C23.75 8.54687 21.4531 6.25 18.6457 6.25Z" fill="#21272A"/>
<path d="M19.7395 11.3543C19.5232 11.3543 19.3117 11.2902 19.1318 11.17C18.952 11.0498 18.8118 10.879 18.729 10.6791C18.6462 10.4793 18.6246 10.2593 18.6668 10.0472C18.709 9.83501 18.8131 9.64013 18.9661 9.48716C19.1191 9.3342 19.314 9.23003 19.5261 9.18783C19.7383 9.14562 19.9582 9.16728 20.1581 9.25007C20.3579 9.33285 20.5287 9.47304 20.6489 9.6529C20.7691 9.83277 20.8333 10.0442 20.8333 10.2606C20.8336 10.4043 20.8055 10.5466 20.7506 10.6795C20.6958 10.8123 20.6152 10.933 20.5136 11.0346C20.412 11.1363 20.2913 11.2168 20.1584 11.2717C20.0256 11.3265 19.8832 11.3546 19.7395 11.3543Z" fill="#21272A"/>
<path d="M15 12.0832C15.5769 12.0832 16.1408 12.2543 16.6205 12.5748C17.1002 12.8953 17.474 13.3508 17.6948 13.8838C17.9155 14.4168 17.9733 15.0032 17.8608 15.569C17.7482 16.1348 17.4704 16.6546 17.0625 17.0625C16.6546 17.4704 16.1348 17.7482 15.569 17.8608C15.0032 17.9733 14.4168 17.9155 13.8838 17.6948C13.3508 17.474 12.8953 17.1002 12.5748 16.6205C12.2543 16.1408 12.0832 15.5769 12.0832 15C12.084 14.2267 12.3916 13.4853 12.9384 12.9384C13.4853 12.3916 14.2267 12.084 15 12.0832ZM15 10.625C14.1347 10.625 13.2888 10.8816 12.5694 11.3623C11.8499 11.8431 11.2892 12.5263 10.958 13.3258C10.6269 14.1252 10.5403 15.0049 10.7091 15.8535C10.8779 16.7022 11.2946 17.4817 11.9064 18.0936C12.5183 18.7054 13.2978 19.1221 14.1465 19.2909C14.9951 19.4597 15.8748 19.3731 16.6742 19.042C17.4737 18.7108 18.157 18.1501 18.6377 17.4306C19.1184 16.7112 19.375 15.8653 19.375 15C19.375 13.8397 18.9141 12.7269 18.0936 11.9064C17.2731 11.0859 16.1603 10.625 15 10.625Z" fill="#21272A"/>
</svg>
