<svg width="30" height="30" viewBox="0 0 30 30" fill="none" xmlns="http://www.w3.org/2000/svg">
<circle cx="15" cy="15" r="15" fill="white"/>
<path fill-rule="evenodd" clip-rule="evenodd" d="M27.25 15.0738C27.25 8.30901 21.7648 2.82385 15 2.82385C8.23516 2.82385 2.75 8.30901 2.75 15.0738C2.75 21.1879 7.22891 26.2558 13.0859 27.1756V18.616H9.97477V15.0738H13.0859V12.375C13.0859 9.30541 14.9152 7.60846 17.713 7.60846C19.0534 7.60846 20.4556 7.84799 20.4556 7.84799V10.8629H18.9102C17.3893 10.8629 16.9135 11.8068 16.9135 12.777V15.0738H20.3107L19.7682 18.616H16.9141V27.1767C22.7711 26.2574 27.25 21.1896 27.25 15.0738Z" fill="#21272A"/>
</svg>
