<svg width="30" height="30" viewBox="0 0 30 30" fill="none" xmlns="http://www.w3.org/2000/svg">
<circle cx="15" cy="15" r="15" fill="white"/>
<path d="M24.375 8.77735C23.6717 9.08296 22.9275 9.2843 22.166 9.37501C22.9663 8.9064 23.5681 8.16195 23.8586 7.28126C23.102 7.72368 22.2756 8.0341 21.4148 8.19923C21.0524 7.81935 20.6165 7.51716 20.1336 7.311C19.6507 7.10484 19.1309 6.99904 18.6059 7.00001C16.4801 7.00001 14.7598 8.69532 14.7598 10.7852C14.7583 11.0759 14.7916 11.3657 14.859 11.6484C13.3346 11.577 11.842 11.1881 10.4766 10.5067C9.11111 9.82537 7.90292 8.86648 6.9293 7.69141C6.58772 8.26724 6.40708 8.92424 6.40625 9.59376C6.40625 10.9063 7.09102 12.0664 8.125 12.7461C7.51239 12.7316 6.91234 12.5694 6.37578 12.2734V12.3203C6.37578 14.1563 7.70391 15.6836 9.46172 16.0313C9.13117 16.1194 8.79053 16.164 8.44844 16.1641C8.20569 16.1645 7.9635 16.1409 7.72539 16.0938C8.21406 17.5977 9.63633 18.6914 11.3211 18.7227C9.9521 19.7777 8.27134 20.348 6.54297 20.3438C6.23618 20.3433 5.92967 20.325 5.625 20.2891C7.38327 21.4118 9.42713 22.0057 11.5133 22C18.5977 22 22.468 16.2305 22.468 11.2266C22.468 11.0625 22.4637 10.8984 22.4559 10.7383C23.2071 10.2039 23.857 9.53989 24.375 8.77735Z" fill="#21272A"/>
</svg>
