<svg width="15" height="15" viewBox="0 0 15 15" fill="none" xmlns="http://www.w3.org/2000/svg">
<path d="M7.49869 1.24975C4.04625 1.24975 1.24902 4.04699 1.24902 7.49942C1.24902 10.9519 4.04625 13.7491 7.49869 13.7491C10.9511 13.7491 13.7484 10.9519 13.7484 7.49942C13.7484 4.04699 10.9511 1.24975 7.49869 1.24975ZM11.1275 8.20503C11.1275 8.37135 10.9914 8.50744 10.8251 8.50744H8.5067V10.8259C8.5067 10.9922 8.37062 11.1283 8.2043 11.1283H6.79308C6.62676 11.1283 6.49068 10.9922 6.49068 10.8259V8.50744H4.17225C4.00593 8.50744 3.86985 8.37135 3.86985 8.20503V6.79382C3.86985 6.62749 4.00593 6.49141 4.17225 6.49141H6.49068V4.17299C6.49068 4.00667 6.62676 3.87058 6.79308 3.87058H8.2043C8.37062 3.87058 8.5067 4.00667 8.5067 4.17299V6.49141H10.8251C10.9914 6.49141 11.1275 6.62749 11.1275 6.79382V8.20503Z" fill="#D3D9D5"/>
</svg>
